<svg xmlns="http://www.w3.org/2000/svg" viewBox="0 0 27 27"><defs><style>.a{fill:#2f80ed;}</style></defs><path class="a" d="M24.3,7H7V24.36a4.16,4.16,0,0,0,4.14,4.14V11.09H23.22a1.14,1.14,0,0,1,1.14,1.13v3.69H28.5V11.14A4.22,4.22,0,0,0,24.3,7Z" transform="translate(-1.5 -1.5)"/><path class="a" d="M24.3,23.22a1.09,1.09,0,0,1-1.08,1.14h-8.5V28.5H24.3a4.16,4.16,0,0,0,4.14-4.14V19.59H24.3v3.63Z" transform="translate(-1.5 -1.5)"/><path class="a" d="M20.84,19.82V15.57a.89.89,0,0,0-.91-.91H14.77v6.13h5.16A1,1,0,0,0,20.84,19.82Z" transform="translate(-1.5 -1.5)"/><path class="a" d="M22.71,4.11h0A4.08,4.08,0,0,0,18.86,1.5H1.5V18.91a4.15,4.15,0,0,0,2.61,3.86h0V4.11Z" transform="translate(-1.5 -1.5)"/></svg>